<svg width="60" height="60" viewBox="0 0 60 60" fill="none" xmlns="http://www.w3.org/2000/svg">
<path d="M38.75 20.0001C42.2017 20.0001 45 22.7983 45 26.2501C45 29.7018 42.2019 32.4999 38.7246 32.5L18.125 32.5001C16.3991 32.5 15 31.1009 15 29.3751C15 27.8448 16.0998 26.5715 17.5522 26.3024L17.5 25.625C17.5 23.2758 19.3518 21.359 21.6752 21.2544C22.7036 18.3392 25.4829 16.25 28.75 16.25C31.852 16.25 34.5141 18.1332 35.6556 20.8187C36.5679 20.2977 37.6242 20.0001 38.75 20.0001ZM19.5834 38.125C20 36.875 20.8333 35.625 21.6666 34.375C22.5 35.625 23.3333 36.875 23.75 38.125C24.1667 39.375 24.1667 40.625 23.3334 41.25C22.5 41.875 20.8333 41.875 20 41.25C19.1667 40.625 19.1667 39.375 19.5834 38.125ZM27.5 40C27.9167 38.75 28.75 37.5 29.5833 36.25C30.4167 37.5 31.25 38.75 31.6667 40C32.0833 41.25 32.0833 42.5 31.25 43.125C30.4167 43.75 28.75 43.75 27.9167 43.125C27.0833 42.5 27.0833 41.25 27.5 40ZM34.5834 36.875C35 35.625 35.8333 34.375 36.6666 33.125C37.5 34.375 38.3334 35.625 38.75 36.875C39.1667 38.125 39.1667 39.375 38.3334 40C37.5 40.625 35.8333 40.625 35 40C34.1667 39.375 34.1667 38.125 34.5834 36.875Z" fill="white"/>
</svg>
