<svg fill="#ffffff" version="1.1" id="Layer_1" xmlns="http://www.w3.org/2000/svg" xmlns:xlink="http://www.w3.org/1999/xlink" width="64px" height="64px" viewBox="0 0 256 255" enable-background="new 0 0 256 255" xml:space="preserve"><g id="SVGRepo_bgCarrier" stroke-width="0"></g><g id="SVGRepo_tracerCarrier" stroke-linecap="round" stroke-linejoin="round"></g><g id="SVGRepo_iconCarrier"> <path d="M215.809,206.439c0,0,1.553,3.143,1.735,7.191c0,10.6-8.813,19.123-19.727,19.123c-10.914,0-19.727-8.576-19.727-19.123 c0-2.504,0.731-5.007,1.233-6.872c0.32-1.172,18.677-37.554,18.677-37.554v-0.32L215.809,206.439z M41,168.885v0.32 c0,0-18.357,36.382-18.677,37.554c-0.502,1.864-1.233,4.368-1.233,6.872c0,10.547,8.813,19.123,19.727,19.123 s19.727-8.523,19.727-19.123c-0.183-4.048-1.735-7.191-1.735-7.191L41,168.885z M119.5,189.885v0.32 c0,0-18.357,36.382-18.677,37.554c-0.502,1.864-1.233,4.368-1.233,6.872c0,10.547,8.813,19.123,19.727,19.123 s19.727-8.523,19.727-19.123c-0.183-4.048-1.735-7.191-1.735-7.191L119.5,189.885z M212.512,67.422c-0.41,0-0.82,0.102-1.229,0.102 c0.205-1.946,0.307-3.893,0.307-5.839c0-33.395-27.044-60.439-60.439-60.439c-30.527,0-55.727,22.639-59.722,52.039 c-4.098-1.332-8.298-2.151-12.702-2.151c-22.946,0-41.59,18.644-41.59,41.59c0,0.205,0.102,0.41,0.102,0.512 c-1.844-0.307-3.79-0.512-5.737-0.512C15.112,92.724,2,105.939,2,122.124s12.712,29.761,29,29.761c0,0,180.771,0,182,0 c22.946,0,41-19.927,41-42.873C254.102,86.065,235.458,67.422,212.512,67.422z"></path> </g></svg>
