<svg width="45" height="45" viewBox="0 0 45 45" fill="none" xmlns="http://www.w3.org/2000/svg">
<path fill-rule="evenodd" clip-rule="evenodd" d="M11.7188 10.3125C11.7188 6.94703 14.447 4.21875 17.8125 4.21875C21.1779 4.21875 23.9062 6.94701 23.9062 10.3125C23.9062 13.678 21.1779 16.4062 17.8125 16.4062H5.625C4.84836 16.4062 4.21875 15.7766 4.21875 15C4.21875 14.2234 4.84836 13.5938 5.625 13.5938H17.8125C19.6247 13.5938 21.0938 12.1247 21.0938 10.3125C21.0938 8.50031 19.6247 7.03125 17.8125 7.03125C16.0003 7.03125 14.5312 8.50031 14.5312 10.3125V10.9821C14.5312 11.7588 13.9016 12.3884 13.125 12.3884C12.3484 12.3884 11.7188 11.7588 11.7188 10.9821V10.3125ZM26.7188 14.0625C26.7188 9.66148 30.2865 6.09375 34.6875 6.09375C39.0885 6.09375 42.6562 9.66148 42.6562 14.0625C42.6562 18.4635 39.0885 22.0312 34.6875 22.0312H3.75C2.97336 22.0312 2.34375 21.4016 2.34375 20.625C2.34375 19.8484 2.97336 19.2188 3.75 19.2188H34.6875C37.5353 19.2188 39.8438 16.9102 39.8438 14.0625C39.8438 11.2148 37.5353 8.90625 34.6875 8.90625C31.8398 8.90625 29.5312 11.2148 29.5312 14.0625V15C29.5312 15.7766 28.9016 16.4062 28.125 16.4062C27.3484 16.4062 26.7188 15.7766 26.7188 15V14.0625ZM6.09375 26.25C6.09375 25.4734 6.72336 24.8438 7.5 24.8438H34.6875C39.0885 24.8438 42.6562 28.4115 42.6562 32.8125C42.6562 37.2135 39.0885 40.7812 34.6875 40.7812C30.2865 40.7812 26.7188 37.2135 26.7188 32.8125V31.875C26.7188 31.0984 27.3484 30.4688 28.125 30.4688C28.9016 30.4688 29.5312 31.0984 29.5312 31.875V32.8125C29.5312 35.6602 31.8398 37.9688 34.6875 37.9688C37.5353 37.9688 39.8438 35.6602 39.8438 32.8125C39.8438 29.9648 37.5353 27.6562 34.6875 27.6562H7.5C6.72336 27.6562 6.09375 27.0266 6.09375 26.25Z" fill="white"/>
</svg>
